<?xml version="1.0" encoding="UTF-8" standalone="no" ?>
<!DOCTYPE svg PUBLIC "-//W3C//DTD SVG 1.1//EN" "http://www.w3.org/Graphics/SVG/1.1/DTD/svg11.dtd">
<svg xmlns="http://www.w3.org/2000/svg" xmlns:xlink="http://www.w3.org/1999/xlink" version="1.1" width="500" height="100" viewBox="0 0 500 100" xml:space="preserve">
<desc>Created with Fabric.js 5.2.4</desc>
<defs>
</defs>
<g transform="matrix(Infinity NaN NaN Infinity 0 0)" id="5a844151-203b-425f-b891-f0ac00296039"  >
</g>
<g transform="matrix(1 0 0 1 250 50)" id="1cdc3297-cce6-4120-b68e-d129fce7858a"  >
<rect style="stroke: none; stroke-width: 1; stroke-dasharray: none; stroke-linecap: butt; stroke-dashoffset: 0; stroke-linejoin: miter; stroke-miterlimit: 4; fill: rgb(255,255,255); fill-rule: nonzero; opacity: 1; visibility: hidden;" vector-effect="non-scaling-stroke"  x="-250" y="-50" rx="0" ry="0" width="500" height="100" />
</g>
<g transform="matrix(0.39 0 0 0.46 249.5 50.9)"  >
<g style="" vector-effect="non-scaling-stroke"   >
		<g transform="matrix(0.63 0 0 0.63 -544.42 0.8)"  >
<path style="stroke: none; stroke-width: 1; stroke-dasharray: none; stroke-linecap: butt; stroke-dashoffset: 0; stroke-linejoin: miter; stroke-miterlimit: 4; fill: rgb(43,140,198); fill-rule: nonzero; opacity: 1;" vector-effect="non-scaling-stroke"  transform=" translate(-113.5, -159.5)" d="M 0 0 L 5 1 L 28 14 L 58 34 L 68 39 L 86 50 L 104 62 L 118 70 L 134 79 L 158 95 L 175 105 L 198 119 L 209 126 L 222 134 L 228 137 L 231 141 L 230 146 L 224 151 L 213 156 L 204 154 L 190 146 L 179 138 L 161 128 L 150 122 L 133 111 L 113 99 L 100 91 L 86 83 L 71 72 L 55 63 L 45 58 L 35 51 L 26 45 L 22 46 L 21 55 L 21 229 L 22 237 L 30 237 L 39 231 L 44 228 L 48 222 L 49 219 L 49 166 L 52 162 L 59 162 L 69 168 L 76 177 L 78 183 L 79 202 L 82 203 L 106 191 L 119 181 L 121 179 L 120 174 L 110 166 L 95 156 L 82 148 L 69 137 L 57 129 L 50 121 L 49 118 L 49 99 L 61 102 L 77 112 L 87 120 L 107 133 L 125 144 L 139 154 L 150 161 L 160 168 L 169 175 L 170 181 L 165 186 L 159 190 L 143 198 L 128 207 L 115 215 L 99 225 L 82 235 L 79 241 L 78 247 L 78 267 L 80 270 L 86 269 L 103 260 L 116 252 L 133 241 L 157 228 L 166 222 L 179 214 L 190 207 L 204 200 L 217 200 L 229 206 L 231 209 L 222 217 L 204 227 L 181 240 L 162 252 L 144 263 L 128 272 L 111 283 L 97 293 L 73 306 L 54 319 L 50 318 L 49 313 L 49 260 L 42 259 L 26 268 L 14 276 L 5 283 L 0 282 L -3 277 L -3 195 L -4 34 L -4 6 L -2 1 z" stroke-linecap="round" />
</g>
		<g transform="matrix(0.63 0 0 0.63 451.96 11.71)"  >
<path style="stroke: none; stroke-width: 1; stroke-dasharray: none; stroke-linecap: butt; stroke-dashoffset: 0; stroke-linejoin: miter; stroke-miterlimit: 4; fill: rgb(43,140,198); fill-rule: nonzero; opacity: 1;" vector-effect="non-scaling-stroke"  transform=" translate(-74, -91.5)" d="M 0 0 L 85 0 L 105 2 L 118 6 L 130 12 L 140 20 L 146 27 L 151 37 L 154 50 L 154 74 L 152 83 L 145 96 L 136 105 L 127 111 L 116 115 L 117 123 L 125 136 L 135 149 L 147 168 L 151 177 L 150 181 L 143 183 L 125 183 L 111 181 L 103 175 L 95 164 L 83 145 L 76 134 L 70 127 L 61 124 L 45 121 L 43 120 L 41 128 L 39 174 L 36 179 L 32 181 L 26 182 L 6 182 L -2 180 L -5 174 L -6 10 L -3 2 z M 43 37 L 40 41 L 40 86 L 43 91 L 77 90 L 95 88 L 103 84 L 107 79 L 109 72 L 109 54 L 106 47 L 98 41 L 78 38 L 47 37 z" stroke-linecap="round" />
</g>
		<g transform="matrix(0.63 0 0 0.63 571.32 11.71)"  >
<path style="stroke: none; stroke-width: 1; stroke-dasharray: none; stroke-linecap: butt; stroke-dashoffset: 0; stroke-linejoin: miter; stroke-miterlimit: 4; fill: rgb(57,172,223); fill-rule: nonzero; opacity: 1;" vector-effect="non-scaling-stroke"  transform=" translate(-70, -91.5)" d="M 0 0 L 72 0 L 95 2 L 110 7 L 125 15 L 132 21 L 139 32 L 145 48 L 146 56 L 146 73 L 144 82 L 137 98 L 128 109 L 114 118 L 99 124 L 86 127 L 78 128 L 42 128 L 40 138 L 40 164 L 39 175 L 34 181 L 24 183 L 7 183 L 0 181 L -4 175 L -5 172 L -6 155 L -6 11 L -3 2 z M 44 36 L 40 40 L 40 89 L 42 96 L 43 97 L 58 96 L 77 93 L 94 87 L 100 82 L 103 74 L 104 63 L 101 50 L 96 45 L 86 40 L 70 37 z" stroke-linecap="round" />
</g>
		<g transform="matrix(0.63 0 0 0.63 70.79 10.77)"  >
<path style="stroke: none; stroke-width: 1; stroke-dasharray: none; stroke-linecap: butt; stroke-dashoffset: 0; stroke-linejoin: miter; stroke-miterlimit: 4; fill: rgb(10,58,91); fill-rule: nonzero; opacity: 1;" vector-effect="non-scaling-stroke"  transform=" translate(-11, -91)" d="M 0 0 L 25 1 L 32 3 L 40 18 L 48 38 L 59 62 L 73 96 L 78 109 L 92 139 L 100 160 L 106 173 L 106 180 L 104 182 L 72 182 L 65 179 L 61 173 L 56 158 L 50 149 L 46 147 L -27 147 L -32 155 L -38 168 L -41 177 L -46 180 L -51 181 L -84 181 L -83 173 L -63 125 L -55 105 L -43 78 L -30 46 L -19 18 L -12 4 L -8 1 z M 8 56 L 3 61 L -3 76 L -8 88 L -15 109 L -14 113 L -12 115 L 35 115 L 36 108 L 33 96 L 26 77 L 19 60 L 15 56 z" stroke-linecap="round" />
</g>
		<g transform="matrix(0.63 0 0 0.63 -363.08 11.08)"  >
<path style="stroke: none; stroke-width: 1; stroke-dasharray: none; stroke-linecap: butt; stroke-dashoffset: 0; stroke-linejoin: miter; stroke-miterlimit: 4; fill: rgb(10,58,91); fill-rule: nonzero; opacity: 1;" vector-effect="non-scaling-stroke"  transform=" translate(-62, -90.5)" d="M 0 0 L 25 0 L 48 1 L 62 3 L 86 11 L 98 18 L 108 26 L 117 36 L 126 51 L 132 73 L 133 80 L 133 100 L 130 116 L 125 132 L 119 142 L 110 152 L 103 159 L 90 168 L 74 175 L 61 178 L 38 181 L -6 181 L -8 177 L -8 148 L -6 146 L 28 145 L 47 144 L 67 137 L 78 128 L 85 120 L 88 113 L 90 101 L 90 84 L 87 68 L 82 58 L 76 51 L 69 47 L 59 42 L 47 40 L 32 39 L -6 38 L -9 31 L -9 9 L -7 3 L -5 1 z" stroke-linecap="round" />
</g>
		<g transform="matrix(0.63 0 0 0.63 -37.73 11.08)"  >
<path style="stroke: none; stroke-width: 1; stroke-dasharray: none; stroke-linecap: butt; stroke-dashoffset: 0; stroke-linejoin: miter; stroke-miterlimit: 4; fill: rgb(10,59,91); fill-rule: nonzero; opacity: 1;" vector-effect="non-scaling-stroke"  transform=" translate(-72.5, -90.5)" d="M 0 0 L 34 0 L 142 1 L 149 4 L 151 6 L 152 18 L 152 28 L 150 35 L 146 38 L 100 39 L 95 43 L 95 146 L 94 176 L 90 179 L 87 180 L 76 181 L 56 181 L 52 178 L 51 175 L 50 42 L 48 39 L 43 38 L 5 38 L -2 36 L -5 32 L -7 23 L -7 9 L -4 2 z" stroke-linecap="round" />
</g>
		<g transform="matrix(0.63 0 0 0.63 193.47 11.08)"  >
<path style="stroke: none; stroke-width: 1; stroke-dasharray: none; stroke-linecap: butt; stroke-dashoffset: 0; stroke-linejoin: miter; stroke-miterlimit: 4; fill: rgb(10,59,91); fill-rule: nonzero; opacity: 1;" vector-effect="non-scaling-stroke"  transform=" translate(-55.5, -90.5)" d="M 0 0 L 13 0 L 24 2 L 29 6 L 30 10 L 31 135 L 32 143 L 36 145 L 107 146 L 121 147 L 123 148 L 123 175 L 118 180 L 116 181 L -6 181 L -10 177 L -11 174 L -12 97 L -12 8 L -9 3 L -6 1 z" stroke-linecap="round" />
</g>
		<g transform="matrix(0.63 0 0 0.63 -201.89 11.71)"  >
<path style="stroke: none; stroke-width: 1; stroke-dasharray: none; stroke-linecap: butt; stroke-dashoffset: 0; stroke-linejoin: miter; stroke-miterlimit: 4; fill: rgb(10,58,90); fill-rule: nonzero; opacity: 1;" vector-effect="non-scaling-stroke"  transform=" translate(34, -91.5)" d="M 0 0 L 14 0 L 22 2 L 25 5 L 26 11 L 26 135 L 24 144 L 17 157 L 8 167 L -1 175 L -22 182 L -27 183 L -53 183 L -68 179 L -81 174 L -92 166 L -94 162 L -94 154 L -87 146 L -80 140 L -74 137 L -67 138 L -58 144 L -51 146 L -32 146 L -26 143 L -20 135 L -16 124 L -15 115 L -14 6 L -11 2 z" stroke-linecap="round" />
</g>
		<g transform="matrix(0.63 0 0 0.63 -281.75 10.46)"  >
<path style="stroke: none; stroke-width: 1; stroke-dasharray: none; stroke-linecap: butt; stroke-dashoffset: 0; stroke-linejoin: miter; stroke-miterlimit: 4; fill: rgb(11,59,92); fill-rule: nonzero; opacity: 1;" vector-effect="non-scaling-stroke"  transform=" translate(-11.5, -91.5)" d="M 0 0 L 30 0 L 35 5 L 34 11 L 27 19 L 19 24 L 10 28 L 7 33 L 14 40 L 25 48 L 32 58 L 35 68 L 35 171 L 34 179 L 30 182 L 27 183 L -3 183 L -8 180 L -10 176 L -10 59 L -11 34 L -12 26 L -12 9 L -9 4 L -4 1 z" stroke-linecap="round" />
</g>
		<g transform="matrix(0.63 0 0 0.63 -121.46 10.46)"  >
<path style="stroke: none; stroke-width: 1; stroke-dasharray: none; stroke-linecap: butt; stroke-dashoffset: 0; stroke-linejoin: miter; stroke-miterlimit: 4; fill: rgb(10,58,90); fill-rule: nonzero; opacity: 1;" vector-effect="non-scaling-stroke"  transform=" translate(-11, -91.5)" d="M 0 0 L 25 0 L 31 4 L 32 11 L 28 17 L 18 24 L 9 28 L 7 31 L 8 35 L 17 43 L 23 48 L 28 55 L 31 67 L 31 177 L 28 182 L 15 183 L -5 183 L -8 180 L -9 176 L -10 8 L -8 3 L -5 1 z" stroke-linecap="round" />
</g>
		<g transform="matrix(0.63 0 0 0.63 334.42 56.65)"  >
<path style="stroke: none; stroke-width: 1; stroke-dasharray: none; stroke-linecap: butt; stroke-dashoffset: 0; stroke-linejoin: miter; stroke-miterlimit: 4; fill: rgb(43,140,198); fill-rule: nonzero; opacity: 1;" vector-effect="non-scaling-stroke"  transform=" translate(-67, -17)" d="M 0 0 L 134 0 L 138 3 L 139 8 L 139 26 L 136 32 L 132 34 L -2 34 L -4 30 L -5 21 L -5 12 L -4 3 z" stroke-linecap="round" />
</g>
		<g transform="matrix(0.63 0 0 0.63 333.16 -34.28)"  >
<path style="stroke: none; stroke-width: 1; stroke-dasharray: none; stroke-linecap: butt; stroke-dashoffset: 0; stroke-linejoin: miter; stroke-miterlimit: 4; fill: rgb(46,143,200); fill-rule: nonzero; opacity: 1;" vector-effect="non-scaling-stroke"  transform=" translate(-66, -18.5)" d="M 0 0 L 127 0 L 134 2 L 136 4 L 135 12 L 128 21 L 116 29 L 101 34 L 90 36 L 60 37 L -1 37 L -4 31 L -4 6 L -1 1 z" stroke-linecap="round" />
</g>
		<g transform="matrix(0.63 0 0 0.63 451.96 -12.86)"  >
<path style="stroke: none; stroke-width: 1; stroke-dasharray: none; stroke-linecap: butt; stroke-dashoffset: 0; stroke-linejoin: miter; stroke-miterlimit: 4; fill: rgb(57,172,223); fill-rule: nonzero; opacity: 1;" vector-effect="non-scaling-stroke"  transform=" translate(-74, -52.5)" d="M 0 0 L 85 0 L 105 2 L 118 6 L 130 12 L 140 20 L 146 27 L 151 37 L 154 50 L 154 74 L 152 83 L 145 96 L 136 105 L 134 104 L 142 94 L 144 76 L 144 72 L 142 78 L 141 78 L 139 65 L 135 61 L 134 57 L 124 55 L 122 64 L 120 74 L 117 73 L 115 79 L 109 86 L 106 85 L 106 87 L 104 87 L 104 89 L 94 94 L 86 96 L 44 96 L 39 93 L 37 88 L 36 82 L 36 65 L 35 45 L 37 41 L 39 41 L 40 36 L 44 34 L 51 33 L 82 33 L 92 36 L 98 39 L 98 37 L 96 35 L 101 35 L 105 33 L 108 34 L 107 24 L 105 19 L 96 13 L 83 9 L 78 8 L 78 7 L 72 6 L 72 5 L 46 5 L 43 4 L 7 4 L -1 5 L -1 24 L -2 30 L -3 57 L -4 92 L -5 92 L -6 29 L -6 10 L -3 2 z M 43 37 L 40 41 L 40 86 L 43 91 L 77 90 L 95 88 L 103 84 L 107 79 L 109 72 L 109 54 L 106 47 L 98 41 L 78 38 L 47 37 z" stroke-linecap="round" />
</g>
		<g transform="matrix(0.63 0 0 0.63 319.3 11.65)"  >
<path style="stroke: none; stroke-width: 1; stroke-dasharray: none; stroke-linecap: butt; stroke-dashoffset: 0; stroke-linejoin: miter; stroke-miterlimit: 4; fill: rgb(44,141,198); fill-rule: nonzero; opacity: 1;" vector-effect="non-scaling-stroke"  transform=" translate(-44, -18)" d="M 0 0 L 82 0 L 89 2 L 91 4 L 92 9 L 92 28 L 89 33 L 85 35 L 78 36 L 11 36 L 2 35 L -3 30 L -4 26 L -4 6 L -2 1 z" stroke-linecap="round" />
</g>
		<g transform="matrix(0.63 0 0 0.63 -544.42 -34.17)"  >
<path style="stroke: none; stroke-width: 1; stroke-dasharray: none; stroke-linecap: butt; stroke-dashoffset: 0; stroke-linejoin: miter; stroke-miterlimit: 4; fill: rgb(90,183,227); fill-rule: nonzero; opacity: 1;" vector-effect="non-scaling-stroke"  transform=" translate(-113.5, -104)" d="M 0 0 L 5 1 L 28 14 L 58 34 L 68 39 L 86 50 L 104 62 L 118 70 L 134 79 L 158 95 L 175 105 L 198 119 L 209 126 L 222 134 L 228 137 L 231 141 L 230 146 L 224 151 L 213 156 L 204 154 L 190 146 L 179 138 L 161 128 L 150 122 L 133 111 L 113 99 L 100 91 L 86 83 L 71 72 L 55 63 L 45 58 L 35 51 L 26 45 L 26 44 L 35 43 L 40 48 L 61 60 L 71 67 L 96 81 L 114 92 L 133 104 L 152 115 L 163 121 L 171 127 L 179 132 L 191 139 L 202 145 L 211 148 L 219 146 L 221 141 L 219 141 L 219 139 L 217 139 L 217 137 L 212 135 L 202 129 L 182 118 L 177 114 L 170 110 L 153 99 L 138 90 L 127 84 L 117 76 L 114 75 L 114 73 L 108 71 L 88 59 L 77 52 L 64 44 L 50 34 L 37 27 L 25 20 L 14 12 L 4 6 L 2 18 L 1 53 L -1 208 L -2 208 L -3 195 L -4 34 L -4 6 L -2 1 z" stroke-linecap="round" />
</g>
		<g transform="matrix(0.63 0 0 0.63 -545.71 -50.89)"  >
<path style="stroke: none; stroke-width: 1; stroke-dasharray: none; stroke-linecap: butt; stroke-dashoffset: 0; stroke-linejoin: miter; stroke-miterlimit: 4; fill: rgb(57,172,223); fill-rule: nonzero; opacity: 1;" vector-effect="non-scaling-stroke"  transform=" translate(-107.5, -71.5)" d="M 0 0 L 6 2 L 17 10 L 27 17 L 35 21 L 49 29 L 63 39 L 76 47 L 99 61 L 110 67 L 110 69 L 114 70 L 125 78 L 134 83 L 154 95 L 169 105 L 187 116 L 207 127 L 213 131 L 213 133 L 215 133 L 215 135 L 217 135 L 215 140 L 209 143 L 202 142 L 190 135 L 168 123 L 161 117 L 151 111 L 139 105 L 119 93 L 97 79 L 74 66 L 64 60 L 50 51 L 47 49 L 47 47 L 53 49 L 53 51 L 56 51 L 54 48 L 62 50 L 63 48 L 59 46 L 51 40 L 49 37 L 44 34 L 33 25 L 17 16 L 9 11 L 5 9 L 0 10 L -1 15 L -2 15 L -2 4 z" stroke-linecap="round" />
</g>
		<g transform="matrix(0.63 0 0 0.63 571.32 11.71)"  >
<path style="stroke: none; stroke-width: 1; stroke-dasharray: none; stroke-linecap: butt; stroke-dashoffset: 0; stroke-linejoin: miter; stroke-miterlimit: 4; fill: rgb(89,182,226); fill-rule: nonzero; opacity: 1;" vector-effect="non-scaling-stroke"  transform=" translate(-70, -91.5)" d="M 0 0 L 72 0 L 95 2 L 110 7 L 125 15 L 132 21 L 139 32 L 145 48 L 146 56 L 146 73 L 144 82 L 137 98 L 128 109 L 114 118 L 99 124 L 86 127 L 78 128 L 42 128 L 40 138 L 40 164 L 39 175 L 34 181 L 24 183 L 7 183 L 0 181 L -4 175 L -5 172 L -6 155 L -6 11 L -3 2 z M 39 5 L 13 7 L 3 10 L 0 14 L -2 88 L -2 116 L -1 134 L -1 168 L -2 175 L 1 177 L 14 178 L 29 177 L 32 175 L 33 140 L 35 129 L 38 125 L 44 124 L 74 123 L 94 120 L 110 118 L 119 113 L 120 110 L 122 110 L 123 105 L 125 105 L 128 101 L 128 99 L 133 97 L 137 94 L 140 78 L 141 65 L 140 56 L 135 39 L 128 31 L 123 27 L 121 24 L 119 24 L 119 22 L 109 12 L 98 10 L 75 6 z" stroke-linecap="round" />
</g>
		<g transform="matrix(0.63 0 0 0.63 570.51 -4.81)"  >
<path style="stroke: none; stroke-width: 1; stroke-dasharray: none; stroke-linecap: butt; stroke-dashoffset: 0; stroke-linejoin: miter; stroke-miterlimit: 4; fill: rgb(89,182,226); fill-rule: nonzero; opacity: 1;" vector-effect="non-scaling-stroke"  transform=" translate(-20, -36.5)" d="M 0 0 L 23 0 L 35 3 L 45 7 L 50 12 L 52 16 L 52 21 L 50 20 L 50 18 L 46 16 L 37 12 L 21 9 L -7 8 L -8 11 L -8 60 L -6 67 L 9 66 L 28 63 L 45 57 L 50 53 L 53 45 L 54 34 L 52 22 L 59 27 L 59 42 L 56 52 L 51 60 L 46 66 L 37 71 L 22 73 L -5 73 L -14 70 L -17 65 L -19 29 L -18 12 L -13 3 L -8 1 z" stroke-linecap="round" />
</g>
		<g transform="matrix(0.63 0 0 0.63 451.96 -12.86)"  >
<path style="stroke: none; stroke-width: 1; stroke-dasharray: none; stroke-linecap: butt; stroke-dashoffset: 0; stroke-linejoin: miter; stroke-miterlimit: 4; fill: rgb(90,184,228); fill-rule: nonzero; opacity: 1;" vector-effect="non-scaling-stroke"  transform=" translate(-74, -52.5)" d="M 0 0 L 85 0 L 105 2 L 118 6 L 130 12 L 140 20 L 146 27 L 151 37 L 154 50 L 154 74 L 152 83 L 145 96 L 136 105 L 134 104 L 142 94 L 147 79 L 149 62 L 149 54 L 145 39 L 139 27 L 132 20 L 122 13 L 113 10 L 95 6 L 86 5 L 46 5 L 43 4 L 7 4 L -1 5 L -1 24 L -2 30 L -3 57 L -4 92 L -5 92 L -6 29 L -6 10 L -3 2 z" stroke-linecap="round" />
</g>
		<g transform="matrix(0.63 0 0 0.63 -281.75 -36.48)"  >
<path style="stroke: none; stroke-width: 1; stroke-dasharray: none; stroke-linecap: butt; stroke-dashoffset: 0; stroke-linejoin: miter; stroke-miterlimit: 4; fill: rgb(218,125,89); fill-rule: nonzero; opacity: 1;" vector-effect="non-scaling-stroke"  transform=" translate(-11.5, -17)" d="M 0 0 L 30 0 L 35 5 L 34 11 L 27 19 L 19 24 L 10 28 L 5 33 L 1 32 L -9 32 L -11 34 L -12 26 L -12 9 L -9 4 L -4 1 z" stroke-linecap="round" />
</g>
		<g transform="matrix(0.63 0 0 0.63 452.7 -5.46)"  >
<path style="stroke: none; stroke-width: 1; stroke-dasharray: none; stroke-linecap: butt; stroke-dashoffset: 0; stroke-linejoin: miter; stroke-miterlimit: 4; fill: rgb(90,184,227); fill-rule: nonzero; opacity: 1;" vector-effect="non-scaling-stroke"  transform=" translate(-24.5, -31.5)" d="M 0 0 L 31 0 L 41 3 L 52 9 L 64 23 L 65 31 L 63 40 L 57 52 L 55 52 L 55 54 L 53 54 L 53 56 L 43 61 L 35 63 L -7 63 L -12 60 L -14 55 L -15 49 L -15 32 L -16 12 L -14 8 L -12 8 L -11 3 L -7 1 z M -8 4 L -11 8 L -11 53 L -8 58 L 26 57 L 44 55 L 52 51 L 56 46 L 58 39 L 58 21 L 55 14 L 47 8 L 27 5 L -4 4 z" stroke-linecap="round" />
</g>
		<g transform="matrix(0.63 0 0 0.63 568.79 39.92)"  >
<path style="stroke: none; stroke-width: 1; stroke-dasharray: none; stroke-linecap: butt; stroke-dashoffset: 0; stroke-linejoin: miter; stroke-miterlimit: 4; fill: rgb(90,184,228); fill-rule: nonzero; opacity: 1;" vector-effect="non-scaling-stroke"  transform=" translate(70, -46)" d="M 0 0 L 1 3 L -5 12 L -10 18 L -24 27 L -39 33 L -52 36 L -60 37 L -96 37 L -98 47 L -98 73 L -99 84 L -104 90 L -114 92 L -131 92 L -138 90 L -141 86 L -141 84 L -131 86 L -109 85 L -107 84 L -106 49 L -104 38 L -100 33 L -94 32 L -64 31 L -44 28 L -28 26 L -19 21 L -18 19 L -16 19 L -15 14 L -13 14 L -11 10 L -7 6 L -2 3 z" stroke-linecap="round" />
</g>
		<g transform="matrix(0.63 0 0 0.63 -121.46 -36.8)"  >
<path style="stroke: none; stroke-width: 1; stroke-dasharray: none; stroke-linecap: butt; stroke-dashoffset: 0; stroke-linejoin: miter; stroke-miterlimit: 4; fill: rgb(221,135,103); fill-rule: nonzero; opacity: 1;" vector-effect="non-scaling-stroke"  transform=" translate(-11, -16.5)" d="M 0 0 L 25 0 L 31 4 L 32 11 L 28 17 L 18 24 L 9 28 L 5 33 L 2 32 L -9 32 L -10 25 L -10 8 L -8 3 L -5 1 z" stroke-linecap="round" />
</g>
		<g transform="matrix(0.63 0 0 0.63 -547.19 -7.89)"  >
<path style="stroke: none; stroke-width: 1; stroke-dasharray: none; stroke-linecap: butt; stroke-dashoffset: 0; stroke-linejoin: miter; stroke-miterlimit: 4; fill: rgb(90,184,227); fill-rule: nonzero; opacity: 1;" vector-effect="non-scaling-stroke"  transform=" translate(-60.5, -47.5)" d="M 0 0 L 12 3 L 28 13 L 38 21 L 58 34 L 76 45 L 90 55 L 101 62 L 111 69 L 120 76 L 121 82 L 116 87 L 110 91 L 101 95 L 99 94 L 104 90 L 114 80 L 112 76 L 105 70 L 98 66 L 84 57 L 75 52 L 65 44 L 57 37 L 49 33 L 27 19 L 22 15 L 19 14 L 19 12 L 15 11 L 10 9 L 7 10 L 7 20 L 10 29 L 9 31 L 2 24 L 0 19 z" stroke-linecap="round" />
</g>
		<g transform="matrix(0.63 0 0 0.63 571.32 -7.51)"  >
<path style="stroke: none; stroke-width: 1; stroke-dasharray: none; stroke-linecap: butt; stroke-dashoffset: 0; stroke-linejoin: miter; stroke-miterlimit: 4; fill: rgb(99,198,240); fill-rule: nonzero; opacity: 1;" vector-effect="non-scaling-stroke"  transform=" translate(-70, -61)" d="M 0 0 L 72 0 L 95 2 L 110 7 L 125 15 L 132 21 L 139 32 L 145 48 L 146 56 L 146 73 L 144 73 L 143 51 L 138 37 L 133 29 L 131 25 L 127 23 L 124 20 L 124 18 L 122 18 L 122 16 L 117 14 L 111 10 L 104 8 L 94 7 L 85 4 L -1 4 L -2 11 L -3 74 L -4 122 L -5 122 L -6 11 L -3 2 z" stroke-linecap="round" />
</g>
		<g transform="matrix(0.63 0 0 0.63 -509.08 43.58)"  >
<path style="stroke: none; stroke-width: 1; stroke-dasharray: none; stroke-linecap: butt; stroke-dashoffset: 0; stroke-linejoin: miter; stroke-miterlimit: 4; fill: rgb(89,183,227); fill-rule: nonzero; opacity: 1;" vector-effect="non-scaling-stroke"  transform=" translate(33.5, -29)" d="M 0 0 L 13 0 L 25 6 L 27 9 L 18 17 L 6 24 L 4 23 L 8 17 L 13 13 L 15 13 L 15 8 L 9 4 L 2 5 L -2 6 L -2 8 L -13 14 L -28 22 L -38 28 L -47 33 L -56 36 L -56 38 L -65 43 L -76 50 L -84 54 L -94 58 L -93 55 L -82 48 L -69 40 L -47 28 L -38 22 L -25 14 L -14 7 z" stroke-linecap="round" />
</g>
		<g transform="matrix(0.63 0 0 0.63 567.96 -3.9)"  >
<path style="stroke: none; stroke-width: 1; stroke-dasharray: none; stroke-linecap: butt; stroke-dashoffset: 0; stroke-linejoin: miter; stroke-miterlimit: 4; fill: rgb(100,198,240); fill-rule: nonzero; opacity: 1;" vector-effect="non-scaling-stroke"  transform=" translate(-20, -33)" d="M 0 0 L 29 0 L 36 2 L 45 6 L 49 8 L 48 10 L 37 6 L 25 4 L -3 3 L -4 6 L -4 55 L -2 62 L 13 61 L 32 58 L 50 52 L 49 56 L 46 59 L 35 64 L 32 65 L 13 66 L -2 65 L -7 62 L -9 58 L -10 47 L -10 9 L -7 4 z" stroke-linecap="round" />
</g>
		<g transform="matrix(0.63 0 0 0.63 -561.58 -50.45)"  >
<path style="stroke: none; stroke-width: 1; stroke-dasharray: none; stroke-linecap: butt; stroke-dashoffset: 0; stroke-linejoin: miter; stroke-miterlimit: 4; fill: rgb(90,184,227); fill-rule: nonzero; opacity: 1;" vector-effect="non-scaling-stroke"  transform=" translate(-52.5, -35.5)" d="M 0 0 L 8 6 L 27 17 L 37 24 L 62 38 L 80 49 L 99 61 L 112 69 L 113 71 L 107 69 L 99 65 L 99 63 L 94 62 L 85 57 L 78 53 L 73 49 L 68 46 L 59 40 L 45 33 L 38 30 L 28 24 L 11 15 L 1 8 L -8 2 L -8 1 z" stroke-linecap="round" />
</g>
		<g transform="matrix(0.63 0 0 0.63 487.29 47.36)"  >
<path style="stroke: none; stroke-width: 1; stroke-dasharray: none; stroke-linecap: butt; stroke-dashoffset: 0; stroke-linejoin: miter; stroke-miterlimit: 4; fill: rgb(90,184,228); fill-rule: nonzero; opacity: 1;" vector-effect="non-scaling-stroke"  transform=" translate(-17, -34)" d="M 0 0 L 1 0 L 4 10 L 11 21 L 21 34 L 33 53 L 37 62 L 36 66 L 29 68 L 11 68 L 1 67 L 3 65 L 26 63 L 32 63 L 31 56 L 25 48 L 21 46 L 21 43 L 18 39 L 7 23 L 2 18 L -1 14 L -3 8 L -3 3 L -1 3 z" stroke-linecap="round" />
</g>
		<g transform="matrix(0.63 0 0 0.63 -536.94 -33.91)"  >
<path style="stroke: none; stroke-width: 1; stroke-dasharray: none; stroke-linecap: butt; stroke-dashoffset: 0; stroke-linejoin: miter; stroke-miterlimit: 4; fill: rgb(101,199,240); fill-rule: nonzero; opacity: 1;" vector-effect="non-scaling-stroke"  transform=" translate(-49, -30)" d="M 0 0 L 9 3 L 23 11 L 27 15 L 34 19 L 39 23 L 48 27 L 56 31 L 56 33 L 61 34 L 76 43 L 87 50 L 91 54 L 98 58 L 97 60 L 73 47 L 56 36 L 36 24 L 23 16 L 9 8 L 0 1 z" stroke-linecap="round" />
</g>
		<g transform="matrix(0.63 0 0 0.63 -556.4 1.71)"  >
<path style="stroke: none; stroke-width: 1; stroke-dasharray: none; stroke-linecap: butt; stroke-dashoffset: 0; stroke-linejoin: miter; stroke-miterlimit: 4; fill: rgb(91,185,229); fill-rule: nonzero; opacity: 1;" vector-effect="non-scaling-stroke"  transform=" translate(-32, -30)" d="M 0 0 L 5 2 L 10 6 L 22 12 L 36 21 L 42 25 L 42 27 L 44 27 L 46 31 L 55 34 L 59 39 L 64 44 L 63 50 L 58 54 L 47 60 L 45 60 L 47 56 L 57 48 L 58 43 L 51 37 L 35 26 L 19 16 L 6 5 L 0 1 z" stroke-linecap="round" />
</g>
		<g transform="matrix(0.63 0 0 0.63 -511.31 -36.09)"  >
<path style="stroke: none; stroke-width: 1; stroke-dasharray: none; stroke-linecap: butt; stroke-dashoffset: 0; stroke-linejoin: miter; stroke-miterlimit: 4; fill: rgb(99,198,240); fill-rule: nonzero; opacity: 1;" vector-effect="non-scaling-stroke"  transform=" translate(-50, -31.5)" d="M 0 0 L 14 7 L 41 25 L 58 35 L 81 49 L 92 56 L 100 61 L 100 63 L 96 61 L 87 56 L 84 54 L 77 52 L 68 47 L 65 45 L 65 43 L 60 41 L 54 37 L 50 33 L 35 24 L 26 20 L 26 18 L 20 17 L 6 8 L 1 3 z" stroke-linecap="round" />
</g>
		<g transform="matrix(0.63 0 0 0.63 -487.68 -8.7)"  >
<path style="stroke: none; stroke-width: 1; stroke-dasharray: none; stroke-linecap: butt; stroke-dashoffset: 0; stroke-linejoin: miter; stroke-miterlimit: 4; fill: rgb(100,198,240); fill-rule: nonzero; opacity: 1;" vector-effect="non-scaling-stroke"  transform=" translate(18, -10.5)" d="M 0 0 L 5 2 L 8 6 L 7 11 L 1 16 L -10 21 L -19 19 L -33 11 L -44 3 L -42 2 L -37 5 L -29 8 L -15 15 L -8 15 L 1 9 z" stroke-linecap="round" />
</g>
		<g transform="matrix(0.63 0 0 0.63 -578.84 -77.36)"  >
<path style="stroke: none; stroke-width: 1; stroke-dasharray: none; stroke-linecap: butt; stroke-dashoffset: 0; stroke-linejoin: miter; stroke-miterlimit: 4; fill: rgb(99,198,240); fill-rule: nonzero; opacity: 1;" vector-effect="non-scaling-stroke"  transform=" translate(-45, -28.5)" d="M 0 0 L 5 2 L 17 9 L 44 27 L 54 32 L 72 43 L 90 55 L 89 57 L 68 46 L 58 38 L 53 35 L 53 33 L 47 31 L 32 22 L 15 13 L 15 11 L 11 9 L 0 1 z" stroke-linecap="round" />
</g>
		<g transform="matrix(0.63 0 0 0.63 -580.9 21.09)"  >
<path style="stroke: none; stroke-width: 1; stroke-dasharray: none; stroke-linecap: butt; stroke-dashoffset: 0; stroke-linejoin: miter; stroke-miterlimit: 4; fill: rgb(91,185,228); fill-rule: nonzero; opacity: 1;" vector-effect="non-scaling-stroke"  transform=" translate(-4, -31)" d="M 0 0 L 7 0 L 12 3 L 10 4 L 3 4 L 2 24 L 1 49 L 0 58 L -2 62 L -4 62 L -3 57 L -3 4 z" stroke-linecap="round" />
</g>
		<g transform="matrix(0.63 0 0 0.63 -281.75 -36.48)"  >
<path style="stroke: none; stroke-width: 1; stroke-dasharray: none; stroke-linecap: butt; stroke-dashoffset: 0; stroke-linejoin: miter; stroke-miterlimit: 4; fill: rgb(253,253,253); fill-rule: nonzero; opacity: 1;" vector-effect="non-scaling-stroke"  transform=" translate(-11.5, -17)" d="M 0 0 L 30 0 L 35 5 L 34 11 L 27 19 L 25 18 L 29 14 L 30 6 L 24 3 L -2 3 L -8 5 L -8 31 L -11 34 L -12 26 L -12 9 L -9 4 L -4 1 z" stroke-linecap="round" />
</g>
		<g transform="matrix(0.63 0 0 0.63 -533.96 53.5)"  >
<path style="stroke: none; stroke-width: 1; stroke-dasharray: none; stroke-linecap: butt; stroke-dashoffset: 0; stroke-linejoin: miter; stroke-miterlimit: 4; fill: rgb(89,183,227); fill-rule: nonzero; opacity: 1;" vector-effect="non-scaling-stroke"  transform=" translate(19, -13)" d="M 0 0 L 2 1 L 0 4 L -2 4 L -2 6 L -11 11 L -22 18 L -30 22 L -40 26 L -39 23 L -28 16 L -15 8 z" stroke-linecap="round" />
</g>
		<g transform="matrix(0.63 0 0 0.63 -542.46 11.63)"  >
<path style="stroke: none; stroke-width: 1; stroke-dasharray: none; stroke-linecap: butt; stroke-dashoffset: 0; stroke-linejoin: miter; stroke-miterlimit: 4; fill: rgb(89,183,227); fill-rule: nonzero; opacity: 1;" vector-effect="non-scaling-stroke"  transform=" translate(-8.5, -14)" d="M 0 0 L 8 1 L 13 7 L 18 12 L 17 18 L 12 22 L 1 28 L -1 28 L 1 24 L 11 16 L 12 11 L 5 5 z" stroke-linecap="round" />
</g>
		<g transform="matrix(0.63 0 0 0.63 447.94 10.64)"  >
<path style="stroke: none; stroke-width: 1; stroke-dasharray: none; stroke-linecap: butt; stroke-dashoffset: 0; stroke-linejoin: miter; stroke-miterlimit: 4; fill: rgb(102,199,240); fill-rule: nonzero; opacity: 1;" vector-effect="non-scaling-stroke"  transform=" translate(21, -2.5)" d="M 0 0 L 4 0 L 4 2 L -4 5 L -33 5 L -46 4 L -42 2 L -12 1 z" stroke-linecap="round" />
</g>
		<g transform="matrix(0.63 0 0 0.63 603.51 20.07)"  >
<path style="stroke: none; stroke-width: 1; stroke-dasharray: none; stroke-linecap: butt; stroke-dashoffset: 0; stroke-linejoin: miter; stroke-miterlimit: 4; fill: rgb(90,184,228); fill-rule: nonzero; opacity: 1;" vector-effect="non-scaling-stroke"  transform=" translate(14, -14.5)" d="M 0 0 L 1 3 L -5 12 L -10 18 L -24 27 L -29 29 L -28 26 L -19 21 L -18 19 L -16 19 L -15 14 L -13 14 L -11 10 L -7 6 L -2 3 z" stroke-linecap="round" />
</g>
		<g transform="matrix(0.63 0 0 0.63 -563.06 19.45)"  >
<path style="stroke: none; stroke-width: 1; stroke-dasharray: none; stroke-linecap: butt; stroke-dashoffset: 0; stroke-linejoin: miter; stroke-miterlimit: 4; fill: rgb(91,184,227); fill-rule: nonzero; opacity: 1;" vector-effect="non-scaling-stroke"  transform=" translate(-11.5, -16.5)" d="M 0 0 L 3 3 L 5 9 L 6 28 L 9 29 L 17 25 L 23 23 L 22 26 L 20 26 L 20 28 L 12 33 L 6 33 L 2 30 L 1 26 L 3 16 L 1 4 z" stroke-linecap="round" />
</g>
		<g transform="matrix(0.63 0 0 0.63 551.58 46.34)"  >
<path style="stroke: none; stroke-width: 1; stroke-dasharray: none; stroke-linecap: butt; stroke-dashoffset: 0; stroke-linejoin: miter; stroke-miterlimit: 4; fill: rgb(99,198,240); fill-rule: nonzero; opacity: 1;" vector-effect="non-scaling-stroke"  transform=" translate(1, -18.5)" d="M 0 0 L 2 1 L 0 6 L 0 35 L -2 37 L -3 34 L -4 26 L -4 6 z" stroke-linecap="round" />
</g>
		<g transform="matrix(0.63 0 0 0.63 -615.61 -86.46)"  >
<path style="stroke: none; stroke-width: 1; stroke-dasharray: none; stroke-linecap: butt; stroke-dashoffset: 0; stroke-linejoin: miter; stroke-miterlimit: 4; fill: rgb(101,199,240); fill-rule: nonzero; opacity: 1;" vector-effect="non-scaling-stroke"  transform=" translate(-0.5, -21)" d="M 0 0 L 5 1 L 4 3 L 2 2 L 0 7 L -2 42 L -3 42 L -4 34 L -4 6 L -2 1 z" stroke-linecap="round" />
</g>
		<g transform="matrix(0.63 0 0 0.63 -502.11 33.8)"  >
<path style="stroke: none; stroke-width: 1; stroke-dasharray: none; stroke-linecap: butt; stroke-dashoffset: 0; stroke-linejoin: miter; stroke-miterlimit: 4; fill: rgb(98,197,239); fill-rule: nonzero; opacity: 1;" vector-effect="non-scaling-stroke"  transform=" translate(16, -10.5)" d="M 0 0 L 0 3 L -7 7 L -8 9 L -13 12 L -31 21 L -32 19 L -19 11 L -8 4 z" stroke-linecap="round" />
</g>
		<g transform="matrix(0.63 0 0 0.63 -583.42 -29.94)"  >
<path style="stroke: none; stroke-width: 1; stroke-dasharray: none; stroke-linecap: butt; stroke-dashoffset: 0; stroke-linejoin: miter; stroke-miterlimit: 4; fill: rgb(99,198,240); fill-rule: nonzero; opacity: 1;" vector-effect="non-scaling-stroke"  transform=" translate(-3, -12.5)" d="M 0 0 L 6 1 L 4 14 L 4 25 L 1 22 L 0 19 z" stroke-linecap="round" />
</g>
		<g transform="matrix(0.63 0 0 0.63 495.67 -25.55)"  >
<path style="stroke: none; stroke-width: 1; stroke-dasharray: none; stroke-linecap: butt; stroke-dashoffset: 0; stroke-linejoin: miter; stroke-miterlimit: 4; fill: rgb(101,198,240); fill-rule: nonzero; opacity: 1;" vector-effect="non-scaling-stroke"  transform=" translate(-8.5, -15.5)" d="M 0 0 L 7 6 L 12 13 L 17 27 L 16 31 L 12 21 L 4 6 L 0 2 z" stroke-linecap="round" />
</g>
		<g transform="matrix(0.63 0 0 0.63 -563.71 -56.84)"  >
<path style="stroke: none; stroke-width: 1; stroke-dasharray: none; stroke-linecap: butt; stroke-dashoffset: 0; stroke-linejoin: miter; stroke-miterlimit: 4; fill: rgb(43,140,198); fill-rule: nonzero; opacity: 1;" vector-effect="non-scaling-stroke"  transform=" translate(-6.5, -5.5)" d="M 0 0 L 5 2 L 9 4 L 13 9 L 13 11 L 7 10 L 0 3 z" stroke-linecap="round" />
</g>
		<g transform="matrix(0.63 0 0 0.63 455.97 39.73)"  >
<path style="stroke: none; stroke-width: 1; stroke-dasharray: none; stroke-linecap: butt; stroke-dashoffset: 0; stroke-linejoin: miter; stroke-miterlimit: 4; fill: rgb(62,173,223); fill-rule: nonzero; opacity: 1;" vector-effect="non-scaling-stroke"  transform=" translate(-5, -8)" d="M 0 0 L 5 4 L 11 15 L 7 16 L 0 5 L -1 3 z" stroke-linecap="round" />
</g>
		<g transform="matrix(0.63 0 0 0.63 477.52 32.87)"  >
<path style="stroke: none; stroke-width: 1; stroke-dasharray: none; stroke-linecap: butt; stroke-dashoffset: 0; stroke-linejoin: miter; stroke-miterlimit: 4; fill: rgb(58,172,223); fill-rule: nonzero; opacity: 1;" vector-effect="non-scaling-stroke"  transform=" translate(-1.5, -11)" d="M 0 0 L 1 0 L 2 13 L 6 20 L 5 22 L 1 16 L -1 14 L -3 8 L -3 3 L -1 3 z" stroke-linecap="round" />
</g>
		<g transform="matrix(0.63 0 0 0.63 -562.47 68.77)"  >
<path style="stroke: none; stroke-width: 1; stroke-dasharray: none; stroke-linecap: butt; stroke-dashoffset: 0; stroke-linejoin: miter; stroke-miterlimit: 4; fill: rgb(90,184,227); fill-rule: nonzero; opacity: 1;" vector-effect="non-scaling-stroke"  transform=" translate(5.5, -3.5)" d="M 0 0 L 2 2 L -1 5 L -6 7 L -11 7 L -13 3 L -7 4 z" stroke-linecap="round" />
</g>
		<g transform="matrix(0.63 0 0 0.63 468.47 -18.09)"  >
<path style="stroke: none; stroke-width: 1; stroke-dasharray: none; stroke-linecap: butt; stroke-dashoffset: 0; stroke-linejoin: miter; stroke-miterlimit: 4; fill: rgb(92,187,230); fill-rule: nonzero; opacity: 1;" vector-effect="non-scaling-stroke"  transform=" translate(-5, -5.5)" d="M 0 0 L 6 2 L 12 8 L 11 11 L 7 6 L 2 3 L -2 1 z" stroke-linecap="round" />
</g>
</g>
</g>
</svg>