<?xml version="1.0" encoding="UTF-8"?>
<svg version="1.1" viewBox="0 0 960 914" width="176" height="176" xmlns="http://www.w3.org/2000/svg">
<path transform="translate(152,1)" d="m0 0 11 6 28 17 23 14 26 16 28 17 26 16 28 17 26 16 28 17 26 16 28 17 26 16 28 17 23 14 26 16 28 17 26 16 28 17 26 16 28 17 26 16 28 17 26 16 28 17 23 14 8 5-4 4-56 34-7 4-5-2-22-13-26-16-56-34-46-28-26-16-56-34-46-28-26-16-56-34-23-14-26-16-56-34-23-14-25-15v544l56-34 21-13 1-187 11 7 44 29 15 10 1 1v96l16-9 21-13 84-51 17-10-5-4-43-29-44-29-43-29-18-12-43-29-12-8-1-1v-84l5 2 42 28 44 29 43 29 44 29 43 29 44 29 43 29 33 22 1 3-17 10-252 153-1 1v101l342-202 18-11 10 3 62 22 3 3-20 12-24 15-26 16-24 15-26 16-24 15-42 26-24 15-26 16-24 15-26 16-24 15-26 16-24 15-26 16-24 15-26 16-24 15-47 29h-1v-186l-140 85-8 4z" fill="#248BC8"/>
</svg>
